<svg width="140" height="170" viewBox="0 0 140 170" xmlns="http://www.w3.org/2000/svg" font-family="'Inter','Segoe UI',sans-serif">
  <defs>
    <radialGradient id="shade" cx="50%" cy="30%" r="75%">
      <stop offset="0%" stop-color="#151b23"/>
      <stop offset="100%" stop-color="#0e131a"/>
    </radialGradient>
  </defs>
  <circle cx="70" cy="62" r="48" fill="url(#shade)" stroke="#89CFF0" stroke-opacity="0.35" stroke-width="1.5"/>
  <!-- Lucide "github" icon, exact path, scaled to theme -->
  <g transform="translate(42,34) scale(2.333)" fill="none" stroke="#89CFF0" stroke-width="2" stroke-linecap="round" stroke-linejoin="round">
    <path d="M9 19c-4.3 1.4-4.3-2.5-6-3m12 5v-3.5c0-1 .1-1.4-.5-2 2.8-.3 5.5-1.4 5.5-6a4.6 4.6 0 0 0-1.3-3.2 4.2 4.2 0 0 0-.1-3.2s-1.1-.3-3.5 1.3a12.3 12.3 0 0 0-6.2 0C6.5 2.8 5.4 3.1 5.4 3.1a4.2 4.2 0 0 0-.1 3.2A4.6 4.6 0 0 0 4 9.5c0 4.6 2.7 5.7 5.5 6-.6.6-.6 1.2-.5 2V21"/>
  </g>
  <text x="70" y="140" font-size="13" font-weight="500" fill="#C7CDD6" text-anchor="middle">GitHub</text>
</svg>
